<mxfile host="65bd71144e">
    <diagram id="YptWDFpvo1ZgKw-RAxXK" name="Page-1">
        <mxGraphModel dx="1471" dy="1119" grid="0" gridSize="10" guides="1" tooltips="1" connect="1" arrows="1" fold="1" page="0" pageScale="1" pageWidth="850" pageHeight="1100" background="none" math="0" shadow="1">
            <root>
                <mxCell id="0"/>
                <mxCell id="1" parent="0"/>
                <mxCell id="2" value="fronted(globe)" style="rounded=1;whiteSpace=wrap;html=1;" parent="1" vertex="1">
                    <mxGeometry x="145.25" y="374" width="149.5" height="70" as="geometry"/>
                </mxCell>
                <mxCell id="13" style="edgeStyle=none;html=1;exitX=0.55;exitY=0.95;exitDx=0;exitDy=0;exitPerimeter=0;entryX=0.5;entryY=0;entryDx=0;entryDy=0;" parent="1" source="6" target="9" edge="1">
                    <mxGeometry relative="1" as="geometry"/>
                </mxCell>
                <mxCell id="6" value="RIS LIVE" style="ellipse;shape=cloud;whiteSpace=wrap;html=1;" parent="1" vertex="1">
                    <mxGeometry x="-184" y="-58" width="115" height="54" as="geometry"/>
                </mxCell>
                <mxCell id="14" style="edgeStyle=none;html=1;entryX=0.5;entryY=0;entryDx=0;entryDy=0;" parent="1" source="7" target="10" edge="1">
                    <mxGeometry relative="1" as="geometry"/>
                </mxCell>
                <mxCell id="7" value="Redis" style="rounded=1;whiteSpace=wrap;html=1;fillColor=light-dark(#D80073,#CC0066);fontColor=#ffffff;strokeColor=#A50040;fontStyle=1;fontSize=20;fontFamily=Comic Sans MS;" parent="1" vertex="1">
                    <mxGeometry x="132" y="16" width="176" height="104" as="geometry"/>
                </mxCell>
                <mxCell id="12" style="edgeStyle=none;html=1;exitX=1;exitY=0.5;exitDx=0;exitDy=0;entryX=0;entryY=0.5;entryDx=0;entryDy=0;" parent="1" source="9" target="7" edge="1">
                    <mxGeometry relative="1" as="geometry"/>
                </mxCell>
                <mxCell id="9" value="Ingest-bgp" style="rounded=1;whiteSpace=wrap;html=1;fontSize=16;" parent="1" vertex="1">
                    <mxGeometry x="-138" y="40" width="120" height="60" as="geometry"/>
                </mxCell>
                <mxCell id="15" style="edgeStyle=none;html=1;entryX=0.5;entryY=0;entryDx=0;entryDy=0;" parent="1" source="10" target="2" edge="1">
                    <mxGeometry relative="1" as="geometry"/>
                </mxCell>
                <mxCell id="10" value="Gateway" style="rounded=1;whiteSpace=wrap;html=1;fontSize=14;" parent="1" vertex="1">
                    <mxGeometry x="148.5" y="206" width="143" height="74" as="geometry"/>
                </mxCell>
            </root>
        </mxGraphModel>
    </diagram>
</mxfile>